<?xml version="1.0" encoding="UTF-8"?>
<svg width="669px" height="34px" viewBox="0 0 669 34" version="1.1" xmlns="http://www.w3.org/2000/svg" xmlns:xlink="http://www.w3.org/1999/xlink">
    <!-- Generator: Sketch 45.1 (43504) - http://www.bohemiancoding.com/sketch -->
    <title>h1-bg</title>
    <desc>Created with Sketch.</desc>
    <defs></defs>
    <g id="Page-1" stroke="none" stroke-width="1" fill="none" fill-rule="evenodd">
        <g id="h1-bg" fill="#2C2417">
            <path d="M667.799,7.626 C667.804,5.633 667.787,3.638 667.804,1.645 C667.809,1.077 667.737,0.482 668.254,0 L621.135,0 C621.158,1.552 620.487,2.222 618.659,2.551 C616.612,2.915 614.546,2.722 612.49,2.699 C609.02,2.662 605.553,2.59 602.081,2.516 C599.643,2.47 597.205,2.41 594.885,1.685 C594.65,1.612 594.423,1.612 594.2,1.68 C592.758,2.121 591.531,1.674 590.374,1.046 C589.803,0.736 589.167,0.488 588.757,0 L588.192,0 C588.349,0.453 588.2,0.889 588.121,1.453 C585.669,1.023 583.285,0.605 580.904,0.184 C580.648,0.252 580.456,0.184 580.311,0 L575.523,0 C574.316,0.57 574.316,0.57 573.554,0 L567.078,0 C567.151,0.178 567.222,0.361 567.324,0.624 C566.651,0.556 566.141,0.314 565.671,0 L555.537,0 C555.153,0.314 554.686,0.541 554.373,0.936 C553.808,1.639 552.931,1.852 551.939,1.772 C551.351,1.724 550.763,1.633 550.023,1.546 C550.791,0.982 551.477,0.494 552.157,0 L415.887,0 C415.321,0.388 414.757,0.355 414.191,0 L379.844,0 C379.754,0.227 380.072,0.423 379.874,0.717 C377.459,0.608 375.002,0.508 372.552,0.399 C372.245,0.384 372.028,0.262 371.963,0 L364.639,0 C364.268,0.368 363.889,0.347 363.516,0 L326.91,0 C326.82,0.314 326.874,0.694 326.279,0.729 C325.539,0.767 324.908,0.678 324.663,0 L295.943,0 C295.612,0.273 295.203,0.237 294.797,0.188 C294.394,0.219 293.99,0.246 293.588,0.275 C293.343,0.293 293.15,0.241 293.126,0 L45.359,0 C46.38,0.595 47.397,1.189 48.416,1.78 C48.638,1.912 48.952,2.022 48.867,2.288 C48.753,2.631 48.363,2.563 48.051,2.543 C47.029,2.47 45.192,0.771 45.077,0 L24.803,0 C24.84,0.326 24.75,0.655 24.316,0.663 C23.865,0.678 23.578,0.423 23.68,0 L0.492,0 L0.492,25.345 C0.465,25.561 0.457,25.822 0.454,26.165 C0.447,28.142 0.464,30.124 0.447,32.102 C0.44,32.667 0.514,33.256 0,33.732 L49.486,33.732 C49.461,32.197 50.371,33.056 52.182,32.73 C54.217,32.374 54.825,32.294 56.863,32.317 C60.311,32.354 64.706,32.38 68.153,32.455 C70.575,32.504 72.047,31.872 74.349,32.593 C74.585,32.665 77.159,32.798 77.378,32.73 C78.809,32.293 78.869,32.073 80.02,32.692 C80.585,33.004 81.218,33.252 81.623,33.732 L82.183,33.732 C82.03,33.287 82.178,32.851 82.255,32.293 C84.688,32.72 87.055,33.136 89.417,33.554 C89.674,33.485 89.867,33.554 90.006,33.732 L94.758,33.732 C95.958,33.169 95.958,33.169 96.716,33.732 L103.141,33.732 C103.072,33.558 102.999,33.38 102.899,33.115 C103.567,33.182 104.073,33.425 104.537,33.732 L114.596,33.732 C114.98,33.425 115.344,33.671 115.654,33.281 L116.48,33.075 C117.066,33.125 116.779,33.123 117.513,33.212 C116.749,33.768 118.627,33.248 117.953,33.732 L253.217,33.732 C253.775,33.349 254.336,33.382 254.899,33.732 L288.992,33.732 C289.081,33.512 288.764,33.314 288.962,33.02 C291.358,33.13 293.799,33.231 296.233,33.341 C296.536,33.355 296.748,33.477 296.816,33.732 L304.083,33.732 C304.453,33.365 304.829,33.394 305.2,33.732 L341.535,33.732 C341.622,33.425 341.573,33.047 342.16,33.014 C342.895,32.973 343.521,33.058 343.766,33.732 L372.27,33.732 C372.597,33.465 373.004,33.498 373.412,33.551 C373.813,33.52 374.209,33.491 374.61,33.461 C374.855,33.448 375.044,33.496 375.07,33.732 L621.004,33.732 C619.994,33.146 618.979,32.553 617.971,31.966 C617.748,31.84 617.44,31.726 617.525,31.46 C617.637,31.122 618.018,31.189 618.336,31.211 C619.346,31.282 620.594,31.096 621.291,31.519 C622.045,31.972 621.17,32.969 621.286,33.732 L641.41,33.732 C641.372,33.413 641.462,33.085 641.889,33.078 C642.337,33.058 642.627,33.314 642.52,33.732 L668.254,33.732 C667.742,33.256 667.806,32.671 667.806,32.107 C667.794,30.475 668.326,29.401 668.254,27.379 L668.254,25.803 L668.254,8.936 L667.799,7.626 C667.975,7.39 667.794,8.308 667.799,7.626 L667.799,7.626 Z M618.106,4.608 C618.274,4.558 618.45,4.575 618.568,4.711 C618.528,4.759 618.474,4.852 618.433,4.85 C618.265,4.839 618.047,4.845 617.945,4.759 C617.79,4.63 618.035,4.63 618.106,4.608 L618.106,4.608 Z M612.48,6.747 C613.427,5.955 614.594,5.486 615.957,5.404 C618.085,5.271 620.179,5.513 622.271,5.722 C623.85,5.883 624.83,6.737 624.882,8.048 C624.901,8.48 614.053,8.93 614.247,9.121 L612.945,8.936 C612.781,8.794 612.582,8.701 612.435,8.571 C611.721,7.944 611.781,7.326 612.48,6.747 L612.48,6.747 Z M605.467,7.994 C607.144,7.368 607.365,7.432 607.32,8.936 L606.554,8.936 C606.01,8.753 605.496,8.571 605.055,8.325 C605.095,8.037 605.32,8.052 605.467,7.994 L605.467,7.994 Z M597.61,7.816 C597.798,7.81 597.982,7.81 598.388,7.81 C598.357,7.81 598.542,7.816 598.718,7.851 C598.789,7.868 598.855,7.942 598.884,8.004 C598.95,8.126 598.86,8.25 598.741,8.277 C598.388,8.372 598.02,8.455 597.66,8.498 C597.378,8.538 597.25,8.385 597.217,8.165 C597.186,7.92 597.335,7.822 597.61,7.816 L597.61,7.816 Z M587.694,8.25 C587.73,8.165 587.82,8.141 587.91,8.203 C587.969,8.25 588.007,8.324 588.048,8.382 C587.984,8.411 587.91,8.472 587.851,8.471 C587.694,8.459 587.64,8.366 587.694,8.25 L587.694,8.25 Z M577.368,6.692 C577.397,6.723 577.446,6.752 577.446,6.778 C577.439,6.803 577.385,6.826 577.356,6.851 C577.325,6.82 577.278,6.791 577.278,6.766 C577.283,6.743 577.34,6.718 577.368,6.692 L577.368,6.692 Z M562.543,7.037 C561.893,7.173 561.288,7.221 560.591,6.979 C561.677,6.545 561.846,6.557 562.543,7.037 L562.543,7.037 Z M533.443,8.083 C533.493,8.136 533.533,8.184 533.583,8.238 C533.552,8.298 533.528,8.397 533.488,8.405 C533.329,8.43 533.289,8.331 533.312,8.234 C533.324,8.176 533.398,8.136 533.443,8.083 L533.443,8.083 Z M490.031,5.79 C490.211,5.79 490.403,5.807 490.399,6.001 C490.391,6.117 490.276,6.177 490.128,6.183 C489.953,6.175 489.76,6.175 489.768,5.974 C489.773,5.85 489.881,5.79 490.031,5.79 L490.031,5.79 Z M386.048,4.85 C387.611,4.558 387.833,5.124 386.048,5.04 C385.875,5.079 385.875,4.815 386.048,4.85 L386.048,4.85 Z M95.476,6.158 C95.386,5.987 95.566,5.976 95.686,5.974 C95.811,5.962 95.95,5.987 95.999,6.109 C96.028,6.262 95.89,6.295 95.758,6.33 C95.578,6.375 95.524,6.257 95.476,6.158 L95.476,6.158 Z M246.157,5.104 C246.517,4.903 246.858,5.098 247.202,5.178 C247.292,5.201 247.377,5.232 247.467,5.251 C247.653,5.3 247.815,5.354 247.792,5.552 C247.767,5.767 247.563,5.755 247.382,5.767 C247.292,5.776 247.196,5.772 247.099,5.772 C246.722,5.687 246.211,5.854 246.038,5.408 C246.001,5.319 246.067,5.153 246.157,5.104 L246.157,5.104 Z M240.623,4.411 C240.667,4.471 240.713,4.525 240.757,4.575 C240.804,4.668 240.774,4.742 240.667,4.755 C240.51,4.777 240.443,4.692 240.48,4.575 C240.499,4.515 240.577,4.465 240.623,4.411 L240.623,4.411 Z M235.596,4.951 C234.509,5.6 233.374,5.515 232.214,5.495 C232.515,4.207 233.649,4.08 235.596,4.951 L235.596,4.951 Z M231.2,5.466 C231.536,5.546 231.835,5.606 231.83,5.956 C231.818,6.27 231.745,6.551 231.368,6.731 C230.767,7.026 230.586,5.335 231.2,5.466 L231.2,5.466 Z M221.413,4.612 C220.146,5.399 210.991,4.85 208.787,4.651 C208.421,4.618 208.037,4.595 207.681,4.51 C206.768,4.294 201.081,4.595 200.016,3.773 C207.136,4.147 214.272,3.82 221.413,4.612 L221.413,4.612 Z M193.445,4.134 C193.583,4.103 193.686,4.147 193.723,4.269 C193.723,4.409 193.588,4.442 193.469,4.482 C193.282,4.544 193.252,4.417 193.216,4.324 C193.162,4.167 193.325,4.157 193.445,4.134 L193.445,4.134 Z M116.512,2.59 C115.743,4.01 115.143,4.355 113.677,2.59 L116.512,2.59 Z M109.261,6.324 C110.282,6.197 102.263,7.479 101.646,6.336 C102.619,5.908 107.717,6.511 109.261,6.324 L109.261,6.324 Z M94.106,1.639 C94.857,1.813 95.603,1.993 96.347,2.176 C96.335,2.263 96.328,2.348 96.316,2.435 C95.439,2.716 94.592,2.59 93.771,2.189 C93.62,2.116 93.456,2.013 93.534,1.827 C93.637,1.6 93.873,1.587 94.106,1.639 L94.106,1.639 Z M89.068,1.612 C88.538,1.813 88.208,1.875 87.92,1.625 C87.907,1.558 87.883,1.486 87.901,1.484 C88.291,1.317 88.622,1.385 89.068,1.612 L89.068,1.612 Z M86.327,6.82 C86.364,6.878 86.398,6.944 86.435,7.001 C86.369,7.026 86.308,7.047 86.242,7.066 C86.237,7.006 86.218,6.95 86.23,6.89 C86.23,6.865 86.292,6.845 86.327,6.82 L86.327,6.82 Z M80.693,1.25 C81.966,1.151 83.198,1.397 84.189,2.16 C84.543,2.435 78.777,1.399 80.693,1.25 L80.693,1.25 Z M40.554,6.429 C40.71,6.398 40.794,6.483 40.854,6.584 C40.727,6.723 40.554,6.743 40.362,6.704 C40.265,6.685 40.073,6.663 40.182,6.532 C40.235,6.458 40.42,6.452 40.554,6.429 L40.554,6.429 Z M38.084,0.796 C38.252,0.802 38.294,0.899 38.306,1.011 C38.277,1.219 38.09,1.197 37.917,1.176 C37.802,1.158 37.634,1.145 37.675,0.998 C37.719,0.825 37.899,0.796 38.084,0.796 L38.084,0.796 Z M24.082,4.457 C24.852,3.961 28.413,3.779 29.764,3.673 C30.527,3.613 31.23,3.692 31.867,4.122 C32.456,4.525 36.085,6.543 35.664,7.5 C34.918,7.44 34.324,7.132 33.693,6.911 C32.576,6.522 31.459,6.135 30.264,5.92 C28.761,5.643 27.278,5.648 25.855,6.148 C24.864,6.497 23.865,6.485 22.832,6.435 C22.7,5.495 23.337,4.938 24.082,4.457 L24.082,4.457 Z M52.489,29.157 C52.324,29.212 52.15,29.192 52.028,29.055 C52.071,29.01 52.127,28.915 52.168,28.921 C52.334,28.929 52.551,28.925 52.65,29.01 C52.805,29.142 52.562,29.142 52.489,29.157 L52.489,29.157 Z M54.628,28.373 C52.514,28.503 50.434,28.266 48.359,28.057 C46.815,27.897 55.978,28.292 54.628,28.373 L54.628,28.373 Z M63.255,25.803 L65.025,25.803 C63.842,26.246 63.397,26.331 63.255,25.803 L63.255,25.803 Z M72.835,25.975 C72.648,25.979 72.465,25.979 72.066,25.979 C72.095,25.979 71.909,25.975 71.737,25.94 C71.672,25.927 71.616,25.861 71.581,25.803 L73.173,25.803 C73.117,25.905 73.018,25.971 72.835,25.975 L72.835,25.975 Z M92.929,27.091 C92.9,27.06 92.852,27.031 92.852,27.009 C92.857,26.984 92.911,26.957 92.942,26.936 C92.969,26.965 93.019,26.992 93.019,27.019 C93.012,27.044 92.961,27.063 92.929,27.091 L92.929,27.091 Z M107.643,26.752 C108.289,26.612 108.89,26.566 109.585,26.81 C108.504,27.236 108.337,27.226 107.643,26.752 L107.643,26.752 Z M179.618,27.99 C179.442,27.99 179.248,27.972 179.257,27.774 C179.263,27.66 179.374,27.602 179.525,27.594 C179.697,27.604 179.767,27.99 179.618,27.99 L179.618,27.99 Z M282.834,28.921 C281.283,29.212 279.732,29.365 278.182,28.925 C277.939,28.857 277.661,28.805 277.448,28.476 C279.297,28.565 281.062,28.648 282.834,28.733 C283.007,28.691 283.268,28.712 283.268,28.822 C283.268,28.938 283.007,28.952 282.834,28.921 L282.834,28.921 Z M308.991,30.51 C308.569,30.294 308.167,30.044 307.524,29.678 C309.002,29.522 310.191,29.768 311.53,29.83 C310.613,31.122 310.332,31.189 308.991,30.51 L308.991,30.51 Z M353.423,25.954 C353.395,25.932 353.364,25.907 353.329,25.882 C353.349,25.855 353.455,25.907 353.423,25.954 L353.423,25.954 Z M380.044,27.604 C379.642,27.86 379.213,27.906 378.777,27.683 C378.729,27.66 378.705,27.507 378.74,27.486 C379.183,27.157 379.627,27.304 380.069,27.42 C380.052,27.536 380.063,27.592 380.044,27.604 L380.044,27.604 Z M390.059,28.04 C389.641,28.359 389.163,28.578 388.572,28.406 C388.02,28.239 387.474,28.061 387.082,27.588 C387.946,27.226 388.891,27.3 389.763,27.112 C389.939,27.073 390.132,27.127 390.18,27.304 C390.257,27.557 390.335,27.829 390.059,28.04 L390.059,28.04 Z M421.691,28.669 C421.329,28.871 420.993,28.675 420.652,28.6 C420.563,28.571 420.481,28.542 420.393,28.52 C420.204,28.476 420.042,28.418 420.07,28.228 C420.096,28.009 420.298,28.022 420.475,28.009 C420.563,28.001 420.658,28.005 420.756,28.005 C421.132,28.092 421.638,27.928 421.812,28.365 C421.847,28.452 421.779,28.619 421.691,28.669 L421.691,28.669 Z M427.181,29.357 C427.138,29.297 427.091,29.247 427.049,29.192 C427.002,29.099 427.034,29.026 427.138,29.014 C427.295,28.995 427.362,29.076 427.327,29.192 C427.305,29.252 427.234,29.301 427.181,29.357 L427.181,29.357 Z M432.174,28.818 C433.253,28.177 434.381,28.262 435.533,28.276 C435.231,29.562 434.104,29.688 432.174,28.818 L432.174,28.818 Z M436.538,28.307 C436.205,28.231 435.909,28.173 435.913,27.821 C435.924,27.507 435.996,27.23 436.371,27.052 C436.966,26.76 437.831,26.936 438.16,27.472 C438.374,27.836 438.536,28.231 438.427,28.712 C437.713,28.691 437.143,28.441 436.538,28.307 L436.538,28.307 Z M474.014,29.634 C473.874,29.661 473.774,29.62 473.739,29.496 C473.739,29.361 473.869,29.326 473.99,29.289 C474.176,29.225 474.202,29.351 474.239,29.442 C474.291,29.599 474.135,29.611 474.014,29.634 L474.014,29.634 Z M517.401,31.35 C512.651,31.241 507.931,30.887 503.207,30.531 C502.055,30.44 500.898,30.329 499.749,30.213 C499.483,30.19 499.154,30.176 499.138,29.861 C499.125,29.585 499.332,29.463 499.624,29.39 C500.376,29.196 501.091,28.942 501.903,28.915 C504.326,28.84 506.731,29.185 509.148,29.125 C509.488,29.121 509.776,29.237 510.064,29.368 C511.781,30.141 513.636,30.395 515.572,30.36 C516.872,30.333 518.168,30.283 519.475,30.211 C521.181,30.122 522.717,30.556 524.497,31.22 C521.938,31.46 519.672,31.406 517.401,31.35 L517.401,31.35 Z M531.344,30.748 C531.152,30.773 531.007,30.713 530.986,30.589 C530.981,30.366 531.057,30.24 531.254,30.205 C531.472,30.163 531.571,30.271 531.6,30.432 C531.631,30.589 531.545,30.722 531.344,30.748 L531.344,30.748 Z M550.379,31.158 C551.138,29.758 551.738,29.415 553.194,31.158 L550.379,31.158 Z M572.615,32.107 C571.868,31.935 571.128,31.757 570.391,31.577 C570.402,31.488 570.407,31.406 570.417,31.317 C571.294,31.042 572.136,31.158 572.952,31.561 C573.099,31.633 573.265,31.738 573.184,31.923 C573.08,32.144 572.85,32.162 572.615,32.107 L572.615,32.107 Z M570.739,27.668 C570.709,27.521 570.851,27.486 570.979,27.451 C571.154,27.405 571.209,27.523 571.256,27.623 C571.346,27.792 571.166,27.8 571.048,27.805 C570.92,27.817 570.787,27.792 570.739,27.668 L570.739,27.668 Z M577.622,32.135 C578.143,31.935 578.469,31.871 578.758,32.125 C578.77,32.191 578.796,32.259 578.779,32.266 C578.388,32.429 578.058,32.361 577.622,32.135 L577.622,32.135 Z M580.338,26.965 C580.304,26.907 580.266,26.843 580.236,26.785 C580.299,26.76 580.359,26.74 580.42,26.721 C580.428,26.779 580.449,26.841 580.432,26.895 C580.432,26.92 580.373,26.941 580.338,26.965 L580.338,26.965 Z M591.624,32.448 C589.727,32.404 587.837,32.344 585.934,32.499 C584.663,32.59 583.444,32.348 582.458,31.59 C582.111,31.317 582.08,31.118 582.488,30.872 C583.499,30.261 584.606,30.141 585.79,30.395 C586.419,30.521 587.016,30.734 587.64,30.864 C588.807,31.1 589.992,31.282 591.209,31.032 C592.789,30.719 594.219,31.087 595.684,31.807 C594.313,32.448 592.967,32.475 591.624,32.448 L591.624,32.448 Z M600.482,28.607 C598.815,28.452 597.231,28.307 595.625,28.162 C596.009,26.779 597.103,26.211 598.9,26.417 C600.115,26.554 600.2,26.622 600.44,27.625 C600.494,27.852 600.546,28.071 600.584,28.293 C600.589,28.359 600.542,28.431 600.482,28.607 L600.482,28.607 Z M604.616,27.507 C606.646,27.031 608.257,27.623 610.076,28.336 C607.922,28.995 606.222,28.836 604.616,27.507 L604.616,27.507 Z M615.115,28.613 C616.842,27.468 617.129,27.494 618.983,28.904 C617.423,30.168 616.847,30.134 615.115,28.613 L615.115,28.613 Z M625.771,27.354 C625.617,27.383 625.531,27.3 625.48,27.197 C625.601,27.06 625.771,27.044 625.963,27.081 C626.058,27.098 626.253,27.118 626.143,27.251 C626.084,27.323 625.904,27.329 625.771,27.354 L625.771,27.354 Z M628.226,32.946 C628.06,32.94 628.017,32.842 628.008,32.727 C628.034,32.522 628.219,32.543 628.394,32.57 C628.508,32.582 628.672,32.599 628.629,32.743 C628.593,32.915 628.406,32.946 628.226,32.946 L628.226,32.946 Z M642.126,29.314 C641.355,29.803 640.563,30.265 640.056,31.1 C639.064,30.137 637.821,29.984 636.484,30.091 C635.725,30.147 635.028,30.07 634.399,29.646 C633.806,29.247 633.071,29.125 632.298,29.134 C631.375,29.146 630.453,29.134 629.393,29.134 C629.815,28.162 630.213,27.244 630.628,26.293 C631.37,26.349 631.956,26.657 632.587,26.878 C633.695,27.259 634.798,27.643 635.988,27.86 C637.48,28.133 638.953,28.131 640.364,27.631 C641.346,27.286 642.337,27.294 643.366,27.348 C643.495,28.276 642.866,28.836 642.126,29.314 L642.126,29.314 Z M554.61,26.012 C557.223,26.233 559.82,26.238 562.41,26.101 C563.94,26.025 564.523,26.31 565.135,27.449 C564.172,27.867 563.233,27.999 562.133,27.664 C560.667,27.226 559.109,27.269 557.574,27.455 C556.557,27.583 555.537,27.571 554.52,27.633 C552.821,27.736 551.804,26.963 550.787,25.803 L552.897,25.803 C553.49,25.87 554.048,25.963 554.61,26.012 L554.61,26.012 Z" id="Fill-62"></path>
        </g>
    </g>
</svg>