<?xml version="1.0" encoding="UTF-8"?>
<svg width="113px" height="155px" viewBox="0 0 113 155" version="1.1" xmlns="http://www.w3.org/2000/svg" xmlns:xlink="http://www.w3.org/1999/xlink">
    <!-- Generator: Sketch 47 (45396) - http://www.bohemiancoding.com/sketch -->
    <title>line-element</title>
    <desc>Created with Sketch.</desc>
    <defs></defs>
    <g id="Page-1" stroke="none" stroke-width="1" fill="none" fill-rule="evenodd">
        <g id="line-element" fill="#00A594">
            <path d="M70.347,22.587 C70.057,23.169 69.827,23.73 69.657,24.271 C69.486,24.813 69.256,25.374 68.967,25.954 L67.85,25.398 C68.14,24.817 68.369,24.256 68.54,23.714 C68.71,23.173 68.94,22.612 69.23,22.03 L70.347,22.587 Z M71.129,18.822 C71.418,18.242 71.707,17.693 71.998,17.178 C72.287,16.664 72.657,16.156 73.107,15.654 L74.065,16.528 C73.695,16.871 73.371,17.286 73.095,17.775 C72.817,18.264 72.535,18.798 72.245,19.379 L71.129,18.822 Z M67.866,29.56 C67.576,30.142 67.392,30.676 67.315,31.165 C67.236,31.654 67.106,32.215 66.924,32.849 L65.649,32.609 C65.831,31.975 65.988,31.361 66.119,30.767 C66.249,30.173 66.459,29.585 66.75,29.003 L67.866,29.56 Z M75.284,12.684 C75.68,12.156 76.102,11.675 76.553,11.239 C77.001,10.804 77.503,10.362 78.06,9.913 L78.581,10.866 C78.263,11.236 77.901,11.631 77.491,12.053 C77.081,12.476 76.678,12.951 76.283,13.479 L75.284,12.684 Z M66.381,36.733 C66.33,37.236 66.259,37.777 66.169,38.358 C66.077,38.94 66.02,39.587 65.997,40.3 L64.722,40.061 C64.826,39.585 64.891,39.024 64.915,38.376 C64.938,37.729 65.015,37.075 65.146,36.414 L66.381,36.733 Z M80.678,7.46 C81.233,7.012 81.768,6.636 82.285,6.332 C82.8,6.03 83.323,5.68 83.854,5.284 L84.414,6.157 C83.857,6.606 83.335,6.989 82.846,7.305 C82.356,7.621 81.913,8.043 81.518,8.571 L80.678,7.46 Z M65.97,43.749 C65.974,45.071 66.179,46.326 66.582,47.516 L65.228,47.435 C65.172,46.88 65.097,46.331 65.003,45.789 C64.908,45.247 64.872,44.62 64.896,43.906 L65.97,43.749 Z M87.15,3.466 C87.626,3.176 88.163,2.932 88.76,2.735 C89.356,2.538 89.971,2.334 90.608,2.124 L91.011,3.313 C90.373,3.524 89.758,3.728 89.162,3.925 C88.566,4.122 88.029,4.366 87.553,4.656 L87.15,3.466 Z M15.083,70.111 L15.913,68.448 L17.029,69.004 L15.37,72.332 L14.254,71.775 L15.083,70.111 Z M14.428,75.62 C14.245,76.256 14.107,76.862 14.017,77.443 C13.926,78.025 13.829,78.554 13.724,79.029 L12.65,79.186 C12.674,78.473 12.718,77.819 12.782,77.223 C12.846,76.629 12.97,76.016 13.153,75.381 L14.428,75.62 Z M18.248,65.161 C18.645,64.634 19.061,64.165 19.497,63.755 C19.934,63.347 20.389,62.998 20.866,62.707 L21.545,63.342 C21.149,63.871 20.759,64.32 20.376,64.688 C19.993,65.058 19.604,65.507 19.207,66.034 L18.248,65.161 Z M67.152,50.768 C67.392,51.35 67.6,51.997 67.776,52.711 C67.95,53.426 68.198,53.994 68.519,54.417 L67.327,55.01 C66.98,54.508 66.726,53.919 66.564,53.245 C66.402,52.57 66.213,51.917 65.999,51.281 L67.152,50.768 Z M13.54,82.794 C13.595,83.351 13.723,83.924 13.924,84.519 C14.126,85.114 14.254,85.69 14.309,86.244 L13.037,86.599 C12.822,85.965 12.687,85.337 12.632,84.716 C12.577,84.095 12.521,83.508 12.466,82.951 L13.54,82.794 Z M23.723,60.373 C24.279,59.925 24.86,59.589 25.47,59.365 C26.08,59.141 26.703,58.925 27.339,58.713 L27.86,59.666 C26.827,60.008 25.728,60.615 24.563,61.484 L23.723,60.373 Z M94.187,1.138 C94.822,0.928 95.432,0.77 96.016,0.665 C96.599,0.56 97.248,0.522 97.966,0.549 L98.09,1.699 C97.531,1.752 96.928,1.797 96.279,1.835 C95.628,1.874 94.985,1.998 94.35,2.209 L94.187,1.138 Z M15.318,89.814 C15.611,90.291 15.865,90.813 16.08,91.381 C16.295,91.95 16.628,92.512 17.082,93.067 L15.85,93.541 C15.555,93.065 15.302,92.543 15.088,91.974 C14.873,91.406 14.619,90.884 14.325,90.407 L15.318,89.814 Z M31.036,57.49 C31.592,57.438 32.195,57.393 32.846,57.354 C33.495,57.316 34.098,57.271 34.657,57.218 L34.82,58.289 C34.102,58.262 33.453,58.3 32.87,58.405 C32.286,58.509 31.676,58.667 31.041,58.878 L31.036,57.49 Z M101.626,0 C102.262,0.186 102.913,0.28 103.577,0.281 C104.239,0.282 104.849,0.257 105.408,0.204 L105.333,1.552 C104.669,1.552 104.065,1.53 103.522,1.49 C102.977,1.45 102.347,1.415 101.631,1.388 L101.626,0 Z M6.659,115.37 L7.054,114.577 L8.171,115.134 L7.776,115.926 L6.512,118.462 L5.395,117.905 L6.659,115.37 Z M8.713,111.25 C9.162,110.749 9.545,110.247 9.862,109.745 C10.177,109.244 10.521,108.755 10.891,108.28 L11.889,109.075 C11.571,109.445 11.261,109.867 10.959,110.342 C10.655,110.818 10.279,111.306 9.83,111.807 L8.713,111.25 Z M5.212,121.869 C4.922,122.451 4.697,123.031 4.542,123.612 C4.384,124.193 4.241,124.814 4.111,125.474 L2.994,124.918 C3.124,124.258 3.268,123.637 3.425,123.055 C3.581,122.474 3.805,121.894 4.095,121.312 L5.212,121.869 Z M13.428,105.39 C13.823,104.863 14.233,104.375 14.656,103.925 C15.078,103.478 15.487,102.989 15.884,102.461 L16.724,103.572 C16.354,103.916 15.924,104.278 15.435,104.66 C14.945,105.043 14.502,105.498 14.107,106.026 L13.428,105.39 Z M3.089,128.724 C2.958,129.385 2.827,130.012 2.698,130.606 C2.566,131.2 2.437,131.828 2.307,132.488 L1.072,132.169 C1.254,131.535 1.392,130.929 1.483,130.346 C1.573,129.766 1.71,129.158 1.894,128.523 L3.089,128.724 Z M19.163,95.885 C19.534,96.203 19.882,96.54 20.201,96.898 C20.521,97.255 20.866,97.592 21.24,97.91 C21.452,98.016 21.599,97.99 21.678,97.832 L22.518,98.943 C21.961,99.392 21.432,99.754 20.93,100.031 C20.426,100.308 19.897,100.67 19.342,101.118 L18.741,100.126 C19.032,99.942 19.316,99.737 19.594,99.513 C19.871,99.289 20.156,99.085 20.448,98.9 C19.915,98.503 19.476,98.119 19.13,97.748 C18.783,97.377 18.423,97.034 18.051,96.716 L19.163,95.885 Z M38.48,57.74 C39.196,57.767 39.793,57.867 40.272,58.04 C40.749,58.213 41.281,58.444 41.867,58.736 L42.106,58.855 L41.553,59.964 L41.314,59.845 C40.888,59.633 40.416,59.414 39.899,59.189 C39.379,58.964 38.881,58.798 38.404,58.691 L38.48,57.74 Z M1.923,136.056 C1.739,136.69 1.642,137.317 1.631,137.938 C1.62,138.56 1.589,139.121 1.538,139.623 L0.145,139.621 C0.275,138.961 0.352,138.307 0.377,137.659 C0.4,137.012 0.49,136.397 0.648,135.816 L1.923,136.056 Z M109.112,0.963 C110.438,0.966 111.687,1.258 112.857,1.841 L112.462,2.633 C111.957,2.579 111.419,2.494 110.849,2.373 C110.277,2.253 109.66,2.127 108.997,1.994 L109.112,0.963 Z M1.393,143.309 C1.369,144.023 1.338,144.651 1.301,145.192 C1.263,145.734 1.232,146.362 1.209,147.075 L0.135,147.232 C0.157,146.518 0.155,145.825 0.127,145.151 C0.097,144.477 0.055,143.863 0,143.307 L1.393,143.309 Z M24.735,95.894 C25.371,95.684 25.96,95.401 26.503,95.044 C27.045,94.688 27.634,94.406 28.271,94.195 L28.714,95.504 C28.077,95.714 27.502,95.938 26.985,96.175 C26.469,96.412 25.971,96.676 25.495,96.965 L24.735,95.894 Z M24.395,100.571 C24.926,100.969 25.452,101.313 25.971,101.604 C26.488,101.896 27.041,102.187 27.626,102.479 L27.073,103.588 C26.488,103.296 25.935,103.005 25.418,102.713 C24.899,102.422 24.373,102.078 23.842,101.68 L24.395,100.571 Z M1.541,150.604 C1.489,151.238 1.492,151.766 1.547,152.189 C1.601,152.612 1.643,152.996 1.671,153.339 C1.751,153.71 1.805,154 1.833,154.212 L0.601,154.685 C0.547,154.396 0.492,154.037 0.438,153.615 C0.356,153.245 0.289,152.816 0.234,152.326 C0.179,151.838 0.15,151.263 0.148,150.602 L1.541,150.604 Z M45.419,61.199 C45.925,61.649 46.344,62.106 46.678,62.569 C47.011,63.032 47.404,63.541 47.858,64.097 L46.865,64.69 C46.571,64.214 46.204,63.751 45.765,63.301 C45.325,62.851 44.839,62.428 44.308,62.03 L45.419,61.199 Z M31.49,92.733 C32.125,92.523 32.714,92.24 33.258,91.883 C33.799,91.528 34.309,91.205 34.786,90.915 L35.307,91.867 C34.751,92.316 34.222,92.678 33.719,92.955 C33.215,93.232 32.646,93.475 32.011,93.685 L31.49,92.733 Z M49.464,67.667 C49.519,68.223 49.621,68.851 49.77,69.551 C49.918,70.252 50.019,70.879 50.076,71.434 L48.683,71.432 C48.626,70.877 48.551,70.328 48.457,69.787 C48.362,69.245 48.286,68.697 48.232,68.141 L49.464,67.667 Z M37.804,89.056 C38.359,88.608 38.881,88.225 39.372,87.909 C39.861,87.593 40.303,87.171 40.701,86.642 L41.541,87.754 C40.984,88.203 40.502,88.605 40.093,88.961 C39.682,89.317 39.199,89.719 38.644,90.167 L37.804,89.056 Z M30.976,104.149 C31.561,104.441 32.125,104.707 32.671,104.945 C33.215,105.183 33.78,105.383 34.365,105.542 L33.812,106.651 C33.227,106.492 32.662,106.293 32.118,106.054 C31.572,105.816 31.008,105.55 30.423,105.258 L30.976,104.149 Z M43.318,84.189 C43.767,83.688 44.163,83.259 44.507,82.902 C44.85,82.546 45.247,82.118 45.697,81.616 L46.733,82.133 C46.336,82.661 45.928,83.15 45.505,83.597 C45.082,84.047 44.672,84.535 44.277,85.062 L43.318,84.189 Z M49.454,75.279 C49.323,75.94 49.185,76.547 49.043,77.102 C48.898,77.657 48.682,78.225 48.392,78.805 L47.356,78.288 C47.645,77.708 47.847,77.133 47.966,76.565 C48.083,75.997 48.193,75.476 48.298,74.999 L49.454,75.279 Z M37.991,106.658 L38.31,106.817 C38.814,106.87 39.319,106.99 39.824,107.176 C40.329,107.362 40.819,107.508 41.299,107.614 L41.223,108.566 C40.718,108.511 40.18,108.426 39.61,108.305 C39.038,108.186 38.421,108.059 37.757,107.926 L37.438,107.767 L37.991,106.658 Z M69.964,57.511 C70.257,57.988 70.511,58.511 70.726,59.078 C70.94,59.647 71.194,60.169 71.488,60.646 L70.496,61.239 C70.201,60.762 69.914,60.207 69.633,59.572 C69.352,58.938 69.064,58.383 68.771,57.906 L69.964,57.511 Z M44.962,108.056 C45.625,108.057 46.248,108.039 46.833,107.999 C47.416,107.961 48.026,108.035 48.665,108.22 L48.828,109.291 C48.11,109.264 47.42,109.249 46.758,109.248 C46.094,109.248 45.523,109.194 45.046,109.087 L44.962,108.056 Z M72.855,64.097 C73.069,64.732 73.303,65.326 73.558,65.882 C73.812,66.438 73.994,67.006 74.102,67.587 L73.068,67.863 C72.64,66.991 72.372,66.363 72.265,65.979 C72.157,65.596 71.917,65.179 71.544,64.729 L72.855,64.097 Z M52.364,107.592 C52.92,107.54 53.491,107.429 54.074,107.258 C54.657,107.088 55.147,106.936 55.545,106.804 L56.146,107.796 C55.509,108.007 54.88,108.203 54.258,108.388 C53.634,108.571 53.044,108.69 52.488,108.742 L52.364,107.592 Z M75.23,70.919 C75.365,71.712 75.473,72.393 75.556,72.961 C75.636,73.53 75.666,74.17 75.643,74.884 L74.25,74.881 C74.432,74.247 74.443,73.627 74.282,73.018 C74.12,72.41 74.012,71.829 73.957,71.273 L75.23,70.919 Z M59.003,105.462 C59.639,105.251 60.228,104.969 60.771,104.612 C61.313,104.256 61.822,103.934 62.3,103.643 L62.901,104.635 C61.841,105.427 60.717,106.019 59.524,106.414 L59.003,105.462 Z M75.817,78.729 C75.712,79.205 75.648,79.767 75.624,80.414 C75.6,81.062 75.523,81.716 75.393,82.376 L74.158,82.057 C74.209,81.555 74.28,81.014 74.371,80.432 C74.461,79.851 74.518,79.203 74.542,78.489 L75.817,78.729 Z M64.917,101.189 C65.393,100.9 65.856,100.537 66.306,100.101 C66.755,99.667 67.164,99.211 67.535,98.736 L68.533,99.53 C68.136,100.058 67.714,100.54 67.265,100.975 C66.815,101.41 66.312,101.853 65.758,102.301 L64.917,101.189 Z M74.89,86.181 C74.706,86.815 74.509,87.409 74.3,87.964 C74.089,88.518 73.92,89.126 73.79,89.786 L72.673,89.23 C72.803,88.569 72.965,87.975 73.164,87.446 C73.36,86.918 73.51,86.417 73.616,85.941 L74.89,86.181 Z M69.634,95.924 L71.253,92.676 L72.37,93.233 C72.08,93.815 71.796,94.349 71.52,94.837 C71.242,95.326 70.907,95.834 70.511,96.362 L69.634,95.924 Z" id="Fill-74"></path>
        </g>
    </g>
</svg>